HIERARCHY
ROOT Hips
{
	OFFSET 0.000000 95.729000 0.000000
	CHANNELS 6 Xposition Yposition Zposition Yrotation Xrotation Zrotation
	JOINT RightUpLeg
	{
		OFFSET -9.625000 -1.639000 0.000000
		CHANNELS 3 Yrotation Xrotation Zrotation
		JOINT RightLeg
		{
			OFFSET 0.000000 -41.481000 0.000000
			CHANNELS 3 Yrotation Xrotation Zrotation
			JOINT RightFoot
			{
				OFFSET 0.000000 -43.120000 0.000000
				CHANNELS 3 Yrotation Xrotation Zrotation
				End Site
				{
					OFFSET 0.000000 -7.850000 17.850000
				}
			}
		}
	}
	JOINT LeftUpLeg
	{
		OFFSET 9.625000 -1.639000 0.000000
		CHANNELS 3 Yrotation Xrotation Zrotation
		JOINT LeftLeg
		{
			OFFSET 0.000000 -43.120000 0.000000
			CHANNELS 3 Yrotation Xrotation Zrotation
			JOINT LeftFoot
			{
				OFFSET 0.000000 -43.120000 0.000000
				CHANNELS 3 Yrotation Xrotation Zrotation
				End Site
				{
					OFFSET 0.000000 -7.850000 17.850000
				}
			}
		}
	}
	JOINT Spine
	{
		OFFSET 0.000000 16.395000 0.000000
		CHANNELS 3 Yrotation Xrotation Zrotation
		JOINT Spine1
		{
			OFFSET 0.000000 10.023000 0.000000
			CHANNELS 3 Yrotation Xrotation Zrotation
			JOINT Spine2
			{
				OFFSET 0.000000 10.437000 0.000000
				CHANNELS 3 Yrotation Xrotation Zrotation
				JOINT Spine3
				{
					OFFSET 0.000000 10.023000 0.000000
					CHANNELS 3 Yrotation Xrotation Zrotation
					JOINT Neck
					{
						OFFSET 0.000000 10.713000 0.000000
						CHANNELS 3 Yrotation Xrotation Zrotation
						JOINT Head
						{
							OFFSET 0.000000 9.720000 0.000000
							CHANNELS 3 Yrotation Xrotation Zrotation
							End Site
							{
								OFFSET 0.000000 16.450000 0.000000
							}
						}
					}
					JOINT RightShoulder
					{
						OFFSET -3.275000 7.142000 0.000000
						CHANNELS 3 Yrotation Xrotation Zrotation
						JOINT RightArm
						{
							OFFSET -13.100000 0.000000 0.000000
							CHANNELS 3 Yrotation Xrotation Zrotation
							JOINT RightForeArm
							{
								OFFSET -27.250000 0.000000 0.000000
								CHANNELS 3 Yrotation Xrotation Zrotation
								JOINT RightHand
								{
									OFFSET -26.750000 0.000000 0.000000
									CHANNELS 3 Yrotation Xrotation Zrotation
									End Site
									{
										OFFSET -3.479000 0.532000 0.778000
									}
								}
							}
						}
					}
					JOINT LeftShoulder
					{
						OFFSET 3.275000 7.142000 0.000000
						CHANNELS 3 Yrotation Xrotation Zrotation
						JOINT LeftArm
						{
							OFFSET 13.100000 0.000000 0.000000
							CHANNELS 3 Yrotation Xrotation Zrotation
							JOINT LeftForeArm
							{
								OFFSET 27.250000 0.000000 0.000000
								CHANNELS 3 Yrotation Xrotation Zrotation
								JOINT LeftHand
								{
									OFFSET 26.750000 0.000000 0.000000
									CHANNELS 3 Yrotation Xrotation Zrotation
									End Site
									{
										OFFSET 3.479000 0.532000 0.778000
									}
								}
							}
						}
					}
				}
			}
		}
	}
}
MOTION
Frames: 23
Frame Time: 0.041667
39.03 94.69 39.5 -152.07 3.64 -1.26 5.69 -15.07 -0.83 -0.0 25.55 -0.0 -9.49 -12.52 2.17 20.92 -14.91 -0.5 0.0 28.55 0.0 0.58 -14.95 -1.37 7.77 3.28 -2.81 1.94 0.87 -0.74 3.18 1.53 -1.21 -0.23 0.36 0.47 -0.23 0.37 0.47 -3.12 7.03 8.3 21.64 -7.3 -26.17 83.6 -64.07 -19.15 11.07 40.29 -29.07 5.33 5.87 -40.19 4.2 2.76 -9.91 -19.02 -3.08 -64.43 -12.39 43.79 -5.84 1.73 -14.07 13.35
38.93 94.75 39.56 -152.23 3.82 -1.32 5.65 -15.59 -0.72 0.0 26.01 0.0 -9.8 -12.76 2.46 20.89 -14.96 -0.57 -0.0 28.35 -0.0 0.7 -14.83 -1.45 7.86 3.16 -2.8 1.96 0.84 -0.74 3.22 1.49 -1.21 -0.24 0.37 0.47 -0.24 0.37 0.47 -3.29 7.15 8.31 21.33 -7.07 -26.2 83.62 -64.1 -19.49 10.65 39.44 -29.05 3.96 5.59 -40.26 4.21 2.75 -9.91 -19.12 -2.6 -64.4 -12.23 43.65 -5.67 1.58 -14.12 13.2
38.83 94.8 39.63 -152.37 3.99 -1.38 5.59 -16.09 -0.61 0.0 26.45 0.0 -10.17 -13.05 2.85 20.95 -15.03 -0.64 0.0 28.17 -0.0 0.69 -14.71 -1.48 7.94 3.05 -2.79 1.98 0.81 -0.73 3.25 1.44 -1.2 -0.25 0.37 0.47 -0.25 0.38 0.47 -3.48 7.28 8.34 21.03 -6.89 -26.23 83.49 -64.19 -19.67 10.22 38.57 -29.02 4.02 5.55 -40.37 4.22 2.75 -9.91 -19.21 -2.14 -64.36 -12.1 43.52 -5.53 1.47 -14.18 13.06
38.74 94.86 39.7 -152.49 4.16 -1.45 5.32 -16.57 -0.48 -0.0 26.85 -0.0 -10.42 -13.35 3.31 20.99 -15.11 -0.7 0.0 28.01 -0.0 0.69 -14.58 -1.5 7.32 3.52 -2.74 1.83 0.93 -0.73 2.99 1.63 -1.19 -0.2 0.34 0.46 -0.2 0.34 0.46 -2.74 6.48 8.26 21.82 -7.54 -26.72 83.36 -64.31 -19.87 9.83 37.7 -28.95 4.08 5.52 -40.44 4.9 2.19 -10.13 -19.03 -2.13 -64.21 -11.95 43.41 -5.41 1.3 -14.2 12.98
38.66 94.91 39.77 -152.59 4.33 -1.51 4.98 -17.04 -0.34 0.0 27.3 0.0 -10.5 -13.62 3.65 21.01 -15.2 -0.77 0.0 27.85 -0.0 0.69 -14.45 -1.52 7.2 3.6 -2.71 1.79 0.95 -0.72 2.94 1.66 -1.17 -0.2 0.33 0.46 -0.2 0.33 0.46 -2.72 6.32 8.27 21.78 -7.66 -26.82 83.22 -64.5 -20.01 9.44 36.85 -28.85 4.12 5.48 -40.54 4.9 2.23 -10.18 -18.92 -2.11 -64.08 -11.8 43.34 -5.3 1.15 -14.24 12.94
38.59 94.96 39.83 -152.66 4.48 -1.58 4.09 -17.49 -0.11 0.0 27.8 -0.0 -10.0 -13.95 3.77 20.99 -15.3 -0.8 0.0 27.72 0.0 0.7 -14.3 -1.53 7.24 3.5 -2.69 1.81 0.92 -0.71 2.96 1.61 -1.16 -0.22 0.33 0.47 -0.21 0.33 0.47 -2.98 6.45 8.33 21.43 -7.53 -26.73 83.05 -64.75 -20.09 9.09 36.04 -28.72 4.02 5.41 -40.65 4.23 3.2 -10.04 -18.51 -2.83 -63.84 -11.62 43.31 -5.19 0.99 -14.25 12.92
38.51 95.01 39.88 -152.72 4.62 -1.64 3.73 -17.95 0.1 0.0 28.35 0.0 -9.96 -14.21 3.89 20.97 -15.36 -0.85 0.0 27.57 0.0 0.7 -14.14 -1.54 7.27 3.41 -2.67 1.81 0.9 -0.71 2.98 1.58 -1.16 -0.23 0.34 0.47 -0.23 0.34 0.47 -3.25 6.58 8.41 21.06 -7.41 -26.59 82.88 -65.05 -20.13 8.76 35.23 -28.59 4.04 5.37 -40.81 4.06 3.51 -10.0 -18.48 -2.78 -63.71 -11.52 43.28 -5.08 0.88 -14.3 12.89
38.43 95.06 39.94 -152.75 4.76 -1.72 3.38 -18.42 0.35 0.0 28.92 0.0 -9.91 -14.44 3.97 20.91 -15.46 -0.88 -0.0 27.46 0.0 0.69 -13.97 -1.53 7.29 3.32 -2.64 1.82 0.88 -0.7 2.98 1.54 -1.14 -0.25 0.34 0.48 -0.25 0.34 0.48 -3.55 6.71 8.49 20.65 -7.32 -26.42 82.66 -65.38 -20.06 8.47 34.41 -28.43 4.09 5.32 -41.02 4.08 3.51 -10.01 -18.58 -2.39 -63.64 -11.4 43.23 -4.95 0.74 -14.36 12.87
38.35 95.11 39.99 -152.77 4.9 -1.74 3.05 -18.92 0.57 0.0 29.52 0.0 -9.84 -14.64 4.08 20.86 -15.53 -0.96 -0.0 27.32 -0.0 0.68 -13.78 -1.53 7.3 3.24 -2.64 1.82 0.85 -0.7 2.99 1.5 -1.14 -0.27 0.35 0.48 -0.27 0.35 0.48 -3.87 6.86 8.58 20.2 -7.25 -26.21 82.45 -65.74 -19.92 8.23 33.56 -28.23 4.17 5.24 -41.26 4.1 3.5 -10.02 -18.67 -2.0 -63.57 -11.33 43.17 -4.82 0.63 -14.42 12.86
38.26 95.16 40.01 -152.78 5.03 -1.76 2.7 -19.43 0.8 -0.0 30.16 0.0 -9.74 -14.83 4.26 20.79 -15.59 -1.02 0.0 27.22 0.0 0.66 -13.57 -1.5 7.29 3.16 -2.65 1.82 0.84 -0.7 2.99 1.47 -1.14 -0.29 0.35 0.49 -0.29 0.35 0.49 -4.24 7.02 8.67 19.68 -7.27 -25.92 82.05 -66.14 -19.48 8.01 32.63 -27.97 4.47 5.19 -41.56 4.12 3.5 -10.02 -18.75 -1.62 -63.51 -11.26 43.07 -4.7 0.31 -14.56 12.98
38.17 95.21 40.03 -152.77 5.14 -1.77 2.41 -19.94 1.02 0.0 30.81 0.0 -9.62 -15.0 4.52 20.72 -15.65 -1.09 0.0 27.14 0.0 0.64 -13.34 -1.48 7.29 3.09 -2.65 1.82 0.82 -0.7 2.99 1.44 -1.14 -0.32 0.36 0.5 -0.32 0.36 0.5 -4.66 7.17 8.78 19.0 -7.43 -25.43 81.8 -66.36 -18.93 7.82 31.84 -27.73 4.65 5.08 -41.8 4.14 3.5 -10.03 -18.81 -1.25 -63.45 -11.23 42.98 -4.6 0.01 -14.67 13.11
38.1 95.26 40.03 -152.75 5.26 -1.78 2.09 -20.45 1.26 -0.0 31.48 0.0 -9.46 -15.15 4.83 20.63 -15.74 -1.14 -0.0 27.11 -0.0 0.62 -13.09 -1.45 6.39 4.35 -2.53 1.59 1.13 -0.68 2.6 1.96 -1.11 -0.26 0.26 0.49 -0.26 0.26 0.49 -3.98 5.25 8.7 19.7 -9.61 -25.91 81.46 -66.53 -18.16 7.65 31.19 -27.52 4.82 5.03 -42.06 5.24 1.69 -10.56 -18.75 -1.23 -63.33 -11.21 42.86 -4.52 -0.06 -14.66 13.11
38.03 95.3 40.0 -152.72 5.39 -1.79 1.79 -20.96 1.49 0.0 32.14 0.0 -9.26 -15.31 5.23 20.57 -15.86 -1.19 -0.0 27.11 0.0 0.61 -12.81 -1.41 6.29 4.49 -2.5 1.57 1.17 -0.67 2.56 2.01 -1.09 -0.29 0.24 0.49 -0.29 0.24 0.49 -4.44 5.08 8.78 19.07 -10.17 -25.43 81.11 -66.73 -17.32 7.44 30.71 -27.36 4.96 5.02 -42.33 5.22 1.69 -10.66 -18.69 -1.23 -63.2 -11.22 42.76 -4.43 -0.13 -14.69 13.12
38.0 95.27 40.04 -152.68 5.55 -1.8 1.48 -21.49 1.71 -0.0 32.8 -0.0 -9.05 -15.46 5.69 20.49 -16.03 -1.21 0.0 27.17 0.0 0.62 -12.52 -1.39 6.09 5.06 -2.37 1.51 1.31 -0.64 2.47 2.25 -1.05 -0.3 0.19 0.49 -0.3 0.19 0.49 -4.85 4.25 8.75 18.62 -11.33 -25.32 80.72 -66.99 -16.41 7.18 30.43 -27.25 5.11 5.05 -42.66 4.88 2.33 -10.91 -18.46 -2.6 -62.72 -11.23 42.66 -4.35 0.08 -14.67 13.1
37.97 95.22 40.08 -152.64 5.72 -1.8 1.17 -22.02 1.92 0.0 33.44 0.0 -8.84 -15.57 6.21 20.39 -16.22 -1.23 -0.0 27.26 -0.0 0.63 -12.21 -1.37 6.01 5.19 -2.34 1.49 1.34 -0.63 2.44 2.3 -1.03 -0.33 0.18 0.5 -0.33 0.18 0.5 -5.44 4.1 8.85 17.97 -11.92 -24.78 80.05 -67.31 -15.23 6.89 30.32 -27.16 5.26 5.07 -43.0 4.89 2.27 -11.01 -18.46 -2.58 -62.58 -11.24 42.56 -4.29 -0.04 -14.7 13.19
37.95 95.15 40.11 -152.58 5.89 -1.78 0.87 -22.54 2.12 -0.0 34.09 0.0 -8.65 -15.64 6.75 20.3 -16.23 -1.27 0.0 26.91 -0.0 0.66 -12.01 -1.4 5.93 5.3 -2.32 1.47 1.37 -0.63 2.41 2.35 -1.03 -0.37 0.17 0.5 -0.37 0.17 0.5 -6.07 3.98 8.95 17.41 -12.49 -24.29 81.06 -66.78 -15.55 5.53 29.65 -27.25 6.56 5.18 -43.58 4.92 2.21 -11.1 -18.46 -2.57 -62.45 -11.25 42.49 -4.22 -0.16 -14.72 13.28
37.94 95.06 40.13 -152.51 6.07 -1.75 0.57 -23.07 2.28 -0.0 34.75 -0.0 -8.49 -15.65 7.31 20.21 -16.29 -1.34 -0.0 26.59 0.0 0.7 -11.79 -1.42 5.84 5.42 -2.31 1.45 1.4 -0.63 2.37 2.39 -1.02 -0.4 0.15 0.51 -0.4 0.16 0.51 -6.72 3.89 9.05 16.9 -13.01 -23.82 82.0 -66.28 -15.87 4.16 28.99 -27.28 7.87 5.3 -44.22 4.97 2.13 -11.18 -18.49 -2.55 -62.33 -11.29 42.46 -4.18 -0.28 -14.75 13.37
37.94 94.95 40.16 -152.42 6.25 -1.71 0.22 -23.62 2.44 0.0 35.45 0.0 -8.34 -15.56 7.95 20.03 -16.67 -1.39 -0.0 26.87 -0.0 0.7 -11.43 -1.38 5.75 5.54 -2.31 1.43 1.43 -0.63 2.33 2.44 -1.02 -0.43 0.14 0.52 -0.43 0.15 0.52 -7.36 3.79 9.14 16.47 -13.5 -23.36 80.93 -66.68 -14.53 3.87 29.0 -27.08 8.04 5.32 -44.68 5.04 1.99 -11.25 -18.54 -2.53 -62.22 -11.3 42.42 -4.13 -0.41 -14.73 13.47
37.94 94.82 40.2 -152.3 6.46 -1.66 -0.15 -24.17 2.59 0.0 36.14 0.0 -8.18 -15.38 8.52 19.82 -17.1 -1.46 0.0 27.21 0.0 0.66 -11.06 -1.31 5.65 5.64 -2.31 1.4 1.46 -0.63 2.29 2.48 -1.02 -0.47 0.13 0.52 -0.47 0.14 0.52 -8.0 3.72 9.22 16.13 -13.85 -22.98 79.62 -67.16 -13.07 3.64 28.98 -26.85 8.26 5.38 -45.14 5.12 1.87 -11.32 -18.61 -2.48 -62.11 -11.33 42.41 -4.08 -0.49 -14.76 13.55
37.94 94.69 40.23 -152.3 6.46 -1.66 -0.28 -24.53 2.77 0.0 36.78 0.0 -8.15 -15.06 9.13 19.46 -17.99 -1.29 -0.0 29.1 0.0 0.43 -10.32 -1.06 5.64 5.85 -2.26 1.4 1.51 -0.62 2.29 2.57 -1.01 -0.5 0.12 0.52 -0.5 0.13 0.53 -8.62 3.65 9.29 15.88 -14.04 -22.74 72.3 -69.19 -6.1 5.8 30.02 -26.57 6.65 4.93 -44.58 5.14 1.53 -11.43 -18.61 -2.24 -62.02 -11.37 42.42 -4.04 -0.58 -14.78 13.67
37.94 94.54 40.24 -152.3 6.46 -1.66 -0.41 -24.87 2.94 0.0 37.36 0.0 -8.06 -14.57 9.52 19.31 -18.09 -1.19 -0.0 29.58 0.0 0.4 -9.99 -0.99 5.65 6.08 -2.21 1.4 1.57 -0.61 2.29 2.67 -0.99 -0.53 0.11 0.53 -0.53 0.11 0.53 -9.24 3.56 9.35 15.63 -14.14 -22.58 70.1 -69.63 -3.94 5.72 29.81 -26.34 7.02 4.88 -44.87 5.14 1.18 -11.56 -18.6 -2.01 -61.92 -11.45 42.46 -4.02 -0.67 -14.8 13.82
37.94 94.36 40.24 -152.3 6.46 -1.66 -0.51 -25.21 3.09 0.0 37.92 0.0 -7.93 -13.9 9.52 19.16 -18.25 -1.08 -0.0 30.18 0.0 0.41 -9.65 -0.9 5.65 6.08 -2.21 1.4 1.57 -0.61 2.29 2.67 -0.99 -0.57 0.12 0.53 -0.57 0.12 0.53 -9.78 3.79 9.42 15.41 -13.9 -22.3 67.67 -70.1 -1.58 5.51 29.54 -26.04 7.5 4.9 -45.22 5.23 1.37 -11.51 -18.68 -1.97 -61.81 -11.53 42.5 -3.98 -0.76 -14.81 14.01
37.94 94.14 40.23 -152.3 6.46 -1.66 -0.59 -25.59 3.24 0.0 38.51 0.0 -7.8 -13.21 9.27 19.04 -18.51 -0.96 -0.0 30.93 0.0 0.48 -9.3 -0.81 5.65 6.08 -2.21 1.4 1.57 -0.61 2.29 2.67 -0.99 -0.59 0.12 0.54 -0.6 0.13 0.54 -10.29 4.0 9.48 15.25 -13.58 -22.09 65.08 -70.6 0.88 5.43 29.36 -25.77 7.83 4.89 -45.43 5.35 1.54 -11.44 -18.78 -1.9 -61.72 -11.66 42.55 -3.96 -0.83 -14.82 14.22
